<?xml version="1.0" encoding="utf-8"?>
<!-- Generator: Adobe Illustrator 23.0.5, SVG Export Plug-In . SVG Version: 6.00 Build 0)  -->
<svg version="1.1"
	 id="svg11" xmlns:cc="http://creativecommons.org/ns#" xmlns:dc="http://purl.org/dc/elements/1.1/" xmlns:rdf="http://www.w3.org/1999/02/22-rdf-syntax-ns#" xmlns:svg="http://www.w3.org/2000/svg"
	 xmlns="http://www.w3.org/2000/svg" xmlns:xlink="http://www.w3.org/1999/xlink" x="0px" y="0px" viewBox="0 0 487.6 487.6"
	 style="enable-background:new 0 0 487.6 487.6;" xml:space="preserve">
<style type="text/css">
	.st0{clip-path:url(#SVGID_2_);}
	.st1{fill:#FFFFFF;fill-opacity:4.000000e-02;}
</style>
<g>
	<g>
		<defs>
			<rect id="SVGID_1_" x="1.8" y="3.5" width="481.9" height="481.9"/>
		</defs>
		<clipPath id="SVGID_2_">
			<use xlink:href="#SVGID_1_"  style="overflow:visible;"/>
		</clipPath>
		<g id="g4" transform="matrix(1,0,0,1.0264747,0,-5.4026381e-5)" class="st0">
			<path id="path2" class="st1" d="M224.2,471.4c-0.5-0.1-3.1-0.7-5.9-1.3c-2.7-0.6-5.1-1.3-5.3-1.7c-0.2-0.3-1.1-8.7-1.8-18.6
				c-0.8-9.9-1.5-18.3-1.6-18.8c-0.1-0.6-1.4-1-6.1-2c-7.7-1.6-18.3-4.5-25.7-7.1c-3.3-1.1-6.1-1.9-6.3-1.8
				c-0.2,0.2-5.3,6.8-11.4,14.8c-6,8-11.2,14.7-11.6,15c-0.4,0.4-1.8,0.1-6.1-1.2c-16.2-5.1-31-13.8-41.6-24.2l-2.5-2.5l8.4-17.1
				c4.6-9.4,8.4-17.2,8.4-17.4c0-0.2-1.4-1.6-3.3-3c-6.2-5.1-14.4-13.3-22.8-22.6l-1.6-1.8l-17.9,7.6c-16.9,7.2-17.9,7.6-18.9,6.7
				c-0.5-0.4-2.8-2.9-5.1-5.4c-9.9-10.9-18.1-25.6-21.9-38.9l-1.1-3.7l1.3-0.8c0.8-0.4,8-5.3,16.2-10.7c11.6-7.7,14.8-10,14.8-10.8
				c0-0.5-1-3.6-2.2-7c-2.4-7-5.3-18-6.5-24.6l-0.9-4.7l-6.6-0.9c-3.6-0.5-12.5-1.6-19.6-2.3l-13.1-1.3l-1.4-6.2
				C2.7,250,1.8,241.5,1.7,234c-0.1-8.2,2.6-25.1,4.2-26.5c0.2-0.2,9.1-1,19.8-1.9l19.3-1.5l0.8-3.5c2-9.8,6.8-26.6,9.3-32.5
				c0.3-0.8-1.6-2.4-15.5-12.5l-15.8-11.5l0.5-1.9c1-3.8,5-14.1,7.3-18.6c4.7-9.3,13-20.8,19.1-26.2l2.2-2l17.5,8.1
				c9.6,4.5,17.6,8.2,17.9,8.2c0.2,0,2-1.7,3.9-3.8c5.2-5.8,12-12.5,18.5-17.8c5.2-4.5,5.6-5,5.3-5.9c-0.2-0.6-3.8-8.5-7.8-17.6
				l-7.4-16.5l2.1-2.1c10.2-10,25.7-19.1,39.7-23.6c8.9-2.8,6.6-4.5,19.4,13.8l11.2,15.8l4.3-1.5c8.9-2.9,23.2-6.5,31.3-7.7l2.1-0.3
				l0.8-4.6c0.4-2.5,1.4-11.1,2.3-19l1.5-14.4l1.8-0.5c8.7-2.6,22.2-3.9,33.6-3.3c8.5,0.4,21.5,3,22.2,4.5c0.1,0.3,1,8.8,1.7,18.9
				c0.9,10.1,1.6,18.5,1.7,18.7c0.1,0.2,2.7,0.8,5.6,1.5c7.7,1.6,19.2,4.7,26,7.1c3.3,1.1,6,2.1,6.1,2.1s5.3-7,11.7-15.4
				c11.6-15.4,11.6-15.4,13-14.9c12.7,3.5,27,10.4,36.8,17.7c4.6,3.4,11,9.2,11.3,10.2c0.1,0.3-3.5,8.2-7.9,17.4
				c-4.4,9.2-8.1,16.9-8.2,17.1c0,0.2,1.4,1.6,3.3,3.1c4.8,3.9,13.7,12.6,18.2,17.6c2.2,2.4,4.4,4.9,5,5.6l1.2,1.2l17.9-7.6
				l17.9-7.6l2.1,2c3.4,3.3,10.3,11.7,13.2,16.2c5.5,8.4,10.7,19.8,12.8,28l0.7,2.7l-16.3,10.8l-16.3,10.8l2.2,6.3
				c2.5,7.2,5.3,17.6,6.8,25.2c0.5,2.8,1.1,5.3,1.2,5.4c0.1,0.1,8.9,1.2,19.5,2.5l19.3,2.2l0.9,3c1.5,5.2,3.1,17.3,3.3,24.7
				c0.2,9.9-2.4,26.7-4.3,28.2c-0.3,0.3-8.9,1-19,1.9c-10.1,0.7-18.8,1.3-19.2,1.5c-0.7,0.1-1.1,1.3-2,5.9c-1.5,7.6-4.4,18-7.1,25.1
				c-1.2,3.2-2,5.9-1.7,6.1c0.2,0.2,7.1,5.2,15.3,11.1s15.2,11,15.5,11.4c0.4,0.5,0.1,1.8-1.2,5.9c-3.1,9.7-8.1,19.9-13.2,27.1
				c-4.4,6.3-12.9,15.6-14.2,15.4c-0.3,0-8.2-3.6-17.7-8.1c-9.4-4.4-17.3-8-17.5-8c-0.2,0-2.4,2.2-4.8,4.9
				c-4.8,5.3-12.3,12.6-19,18.4l-4.2,3.6l7.8,17.5l7.8,17.5l-2.1,2c-3.4,3.3-11.9,10-16.5,12.8c-8.6,5.4-20.3,10.4-28.7,12.3
				l-2.8,0.6l-10.5-14.9c-5.8-8.2-10.9-15.4-11.3-15.8c-0.8-0.7-1.3-0.7-6.8,1c-9.1,2.9-22,6-29.3,7.1c-1.8,0.3-2.1,0.5-2.5,2.1
				c-0.2,0.9-1.3,9.5-2.3,19l-1.7,17.3l-2.3,0.7c-3.5,1.1-14.5,2.8-21.1,3.1C241.9,472.9,226.8,472.2,224.2,471.4L224.2,471.4z
				 M246.3,366.8c30.1-0.7,57.7-10.7,80.4-28.7c31.8-25.3,49.4-62.8,48.4-102.7c-0.7-24-8.1-47.4-21.7-68
				c-3.7-5.6-12.4-16-17.4-20.7c-22.1-21.3-49.6-33.9-80.1-37c-35.5-3.6-69.4,6.2-96.8,28c-22.6,18-37.4,40.9-44.8,69.2
				c-2.3,8.8-4,24.3-3.7,33.3c0.8,21.1,5.8,39.6,15.4,57.4c4.7,8.6,8.4,14,14.5,21.5c20.6,24.7,48.2,40.3,81.7,46.3
				C226.7,366.1,240.4,367,246.3,366.8z"/>
		</g>
	</g>
</g>
</svg>
